<svg xmlns="http://www.w3.org/2000/svg" xmlns:xlink="http://www.w3.org/1999/xlink" width="400" height="400" viewBox="0 0 400 400"><defs><style>.cls-1{fill:none;}.cls-2{fill:#cfe8e3;}.cls-3{clip-path:url(#clip-path);}.cls-4{opacity:0.3;}.cls-5{fill:#82bab5;stroke:#cfe8e3;stroke-miterlimit:10;stroke-width:2.5px;}.cls-6{fill:#35bdb7;}.cls-7{fill:#365254;}.cls-8{fill:#ed7024;}.cls-9{fill:#fff;}</style><clipPath id="clip-path"><rect class="cls-1" width="400" height="400"/></clipPath></defs><title>22024-website</title><g id="design"><rect class="cls-2" width="400" height="400"/><g class="cls-3"><g class="cls-4"><polygon class="cls-5" points="-76.205 366.524 -74.512 368.525 -67.105 373.645 -70.816 377.35 -66.112 381.618 -66.54 384.877 -59.696 396.552 -8.941 407.784 10.732 410.346 9.74 390.424 4.026 380.609 -3.381 366.39 -5.23 356.149 -17.921 342.356 -17.921 330.681 0.896 257.57 -15.065 252.159 -54.839 239.085 -86.349 224.575 -107.87 213.752 -109.307 228.552 -93.33 225.275 -89.77 269.519 -81.08 283.465 -85.357 294.696 -90.199 295.414 -91.619 300.962 -96.614 298.675 -93.33 305.228 -96.614 314.754 -95.194 317.315 -98.034 321.582 -94.903 322.3 -89.207 318.031 -85.357 323.716 -91.19 328.547 -90.199 337.935 -89.207 354.732 -83.22 360.417 -78.224 362.686 -76.205 366.524"/><polygon class="cls-5" points="365.289 203.102 363.133 214.776 371.688 217.167 373.843 222.868 380.104 225.018 384.518 238.811 390.951 238.095 391.497 245.502 406.757 260.148 409.631 271.108 400.05 272.507 389.103 271.108 386.947 271.108 386.537 275.921 382.398 275.921 383.116 279.779 384.518 285.616 399.366 305.246 402.618 302.517 410.042 308.797 418.184 306.1 425.302 309.207 421.023 291.42 419.587 286.3 424.857 289.304 424.857 297.258 431.014 297.976 475.904 268.956 481.616 274.658 485.175 267.83 482.335 261.549 474.911 249.77 466.358 249.19 452.229 250.453 453.528 242.362 444.391 244.786 431.869 250.453 428.859 244.786 424.445 246.185 417.021 243.796 410.759 243.352 412.472 237.378 409.631 233.827 401.763 230.276 400.496 226.418 394.371 226.008 391.942 218.601 380.104 214.059 370.56 205.935 365.289 203.102"/><polygon class="cls-5" points="215.298 303.539 180.946 359.153 181.39 411.487 186.385 409.646 185.941 407.219 189.808 403.944 193.366 409.201 196.203 412.206 192.92 414.902 190.218 411.079 188.096 416.745 200.756 421.321 203.767 417.326 213.585 423.164 238.698 421.729 239.109 416.03 247.97 414.185 247.97 411.079 259.365 408.519 269.901 416.745 271.338 422.447 274.897 417.326 278.9 417.326 278.181 421.729 282.321 421.729 286.292 433.269 311.096 431.972 294.158 436.103 295.87 438.39 309.693 437.673 317.803 439.072 314.962 431.972 327.655 431.972 335.491 440.642 338.055 441.088 335.491 448.187 323.924 446.346 322.076 441.088 318.245 441.088 321.086 448.187 320.367 460.854 318.245 478.913 319.957 482.055 314.962 483.455 314.242 487.722 318.966 491 322.076 486.732 321.668 482.771 332.65 477.48 341.888 476.798 342.915 471.814 353.863 467.956 351.468 460.854 345.891 462.969 342.334 463.689 345.036 457.713 351.878 451.329 357.454 449.315 364.708 450.612 364.298 446.346 366.693 442.489 374.834 438.39 385.1 423.881 383.116 419.886 369.566 426.579 356.874 423.028 339.322 421.594 332.65 414.629 327.793 409.918 311.814 360.417 305.109 360.417 289.883 344.506 287.315 343.928 283.724 331.84 279.891 325.151 277.737 314.908 259.365 315.488 246.09 315.488 234.559 311.05 233.703 308.081 215.298 303.539"/><polygon class="cls-5" points="277.327 210.508 275.171 222.15 281.328 230.276 281.328 238.095 287.008 238.095 290.431 245.502 288.72 253.593 284.579 255.027 281.328 257.996 285.606 257.144 286.292 260.865 284.579 263.835 296.998 267.386 301.138 274.658 313.527 287.869 306.408 308.217 299.977 309.207 298.982 317.024 304.424 325.151 313.113 339.933 311.814 344.918 317.082 349.902 311.814 360.417 327.793 409.918 339.048 421.594 357.454 423.164 369.259 426.715 383.116 420.159 385.1 423.881 415.756 413.639 416.473 402.819 414.181 387.455 418.731 377.077 423.727 375.642 424.445 366.835 422.017 363.283 438.404 357.309 438.987 353.452 444.973 353.452 452.229 344.199 447.095 337.508 436.833 336.824 416.473 361.851 407.2 388.035 410.316 362.259 411.343 353.041 419.587 347.067 423.146 333.686 429.851 330.85 432.554 327.267 471.352 305.928 474.467 285.616 479.907 280.496 481.616 274.658 475.904 268.956 430.844 297.976 424.857 297.258 424.857 289.304 419.587 286.162 421.605 295.141 425.302 309.207 418.184 306.1 410.316 308.489 402.618 302.517 399.366 304.938 392.66 296.405 384.518 285.616 382.261 275.921 386.537 275.921 386.947 271.108 400.496 272.507 409.904 271.108 406.757 260.148 391.497 245.502 391.225 238.095 384.518 238.811 380.104 225.018 373.843 222.868 371.688 216.895 363.133 214.776 368.131 223.585 370.969 231.402 361.87 241.917 351.74 236.661 347.601 239.528 344.318 238.811 345.481 231.402 340.485 231.402 336.926 211.191 333.505 211.638 331.35 215.46 321.668 214.776 318.245 211.191 312.531 208.802 310.821 205.218 293.304 203.817 297.581 206.652 296.554 208.802 286.292 208.802 277.327 210.508"/><polygon class="cls-5" points="98.989 60.831 101.007 63.152 104.413 67.659 103.558 72.49 112.09 73.781 115.94 58.708 110.379 57.717 107.095 48.04 102.544 47.322 99.688 51.59 102.117 61.56 97.259 60.415 98.989 60.831"/><polygon class="cls-5" points="79.15 143.186 85.395 138.584 88.879 134.792 99.992 102.553 106.101 107.524 105.279 92.569 113.664 98.821 112.519 106.213 117.223 128.404 132.754 136.94 132.052 142.64 124.356 143.339 119.653 148.325 123.638 148.325 128.632 147.608 129.916 159.984 125.776 155.443 110.242 151.876 106.958 146.908 80.305 156.431 75.699 154.854 72.628 153.008 68.852 148.993 70.386 144.171 67.318 141.542 61.183 140.776 57.128 136.394 68.961 136.503 79.15 143.186"/><path class="cls-5" d="M125.369,250.44l-1.043,21.9,49.475-5.885,8.481-31.255,11.7-8.107-4.568-5.7-4.841-1.418v-3.55l9.409,2.834,13.532-7.955,3.574-14.236-11.972-2.835-7.135-3.568,2.428-3.549,7.118,5.411,9.561-.715,4.279-14.938,3.848,1.418,1.129-3.55,4.858-3.552v4.267h2.993l6.69-10.668v-7.408l-6.124-5.548-3.559-17.07-7.85-3.55-12.4,3.55,2.564,21.338-2.139,4.266v5.122l-3.422,1.433-4.976-8.4.566-8.826-9.839-9.525-.427,7.392-4.994-1.416-2.414-7.119-4.568-1.707,1.146-8.963-16.679-14.507-9.562,9.542.583,5.393-.583,10.242,10.982,6.4L160.761,149l3.556,4.267-.7,5.258-5.422,8.4,2.273,9.952-7.544-3.549-.29-7.836,3.423-8.108-2.43-11.949-5.561-1.417-1.556-4.984-6.278,2.56-2.567,15.226,6.705,6.538-10.263,5.121-22.666-8.807-4.568-7.118L99.31,155.4l6.572,4.269-6.416.7L93.478,156.1l-4.995,1.28,7.133,9.541-.153,11.37-4.841.715.718-9.95-11.7-7.119-2.274,2.133-5.989-1.416-10.554-1.143-2.17,6.991,24.379,5.975L84.08,184.6l7.074,43.65,11.12,4.27,7.272,8.535c3.519,1.684,8.822,3.645,9.912,4.7Z"/><polygon class="cls-5" points="97.259 29.554 90.57 26.704 89.561 29.554 95.976 40.922 100.543 43.056 104.392 39.505 107.25 31.688 98.969 33.104 97.259 29.554"/><polygon class="cls-5" points="105.812 23.852 102.254 25.985 98.406 24.568 98.969 27.419 107.25 29.552 110.517 26.702 105.812 23.852"/><polygon class="cls-5" points="119.36 35.953 116.076 44.489 124.629 44.489 119.36 35.953"/><polygon class="cls-5" points="121.363 50.173 119.36 60.278 125.213 64.545 126.067 55.432 121.363 50.173"/><polygon class="cls-5" points="123.5 68.097 123.929 72.654 117.789 69.667 118.933 66.098 123.5 68.097"/><polygon class="cls-5" points="129.626 55.432 126.632 66.816 132.327 67.379 133.902 75.488 140.607 76.205 145.158 68.95 143.446 54.44 136.757 51.88 133.472 56.576 129.626 55.432"/><polygon class="cls-5" points="120.781 13.764 119.36 19.448 123.929 22.861 121.363 30.407 130.617 34.093 127.35 40.222 140.18 35.237 136.757 21.718 127.35 20.165 126.067 16.597 120.781 13.764"/><polygon class="cls-5" points="142.317 22.435 150.581 25.985 151.145 35.237 159.272 37.662 157.851 41.927 150.153 40.922 149.436 35.237 144.73 34.093 141.89 28.119 142.317 22.435"/><polygon class="cls-5" points="153.283 63.828 147.724 74.07 158.57 79.483 160.846 76.205 153.283 63.828"/><polygon class="cls-5" points="147.724 89.725 142.317 90.424 144.167 87.59 139.462 85.457 128.478 90.424 131.336 100.665 123.5 98.258 125.213 109.627 134.893 116.317 141.172 125.706 142.746 117.036 146.168 119.17 151.145 117.036 150.153 100.665 143.446 101.383 147.724 89.725"/><polygon class="cls-5" points="173.538 86.156 156.858 84.022 151.145 98.959 159.7 111.915 166.115 104.933 170.682 102.099 170.682 91.14 173.538 86.156"/><polygon class="cls-5" points="159.7 46.622 152.582 45.479 146.168 46.622 145.587 54.014 155.15 56.576 162.847 57.565 163.546 74.07 175.677 76.921 184.076 75.488 207.889 67.379 206.897 55.432 199.043 54.44 197.334 52.308 174.668 59.699 169.537 56.576 167.397 49.746 159.7 46.622"/><polygon class="cls-5" points="150.581 -10.715 155.712 -3.597 163.546 -1.89 173.538 12.909 169.964 26.702 165.258 31.686 160.126 32.387 151.865 23.852 156.431 15.897 150.581 10.913 149.008 -1.89 150.581 -10.715"/><polygon class="cls-5" points="206.897 -40.859 193.639 -43.148 190.92 -41.866 188.08 -44 177.387 -35.465 172.393 -29.765 163.546 -26.93 162.847 -22.664 156.431 -21.657 154.002 -15.972 163.975 -6.02 172.82 -7.437 185.65 -17.388 184.931 -8.155 180.227 -6.02 179.097 1.235 170.682 -2.316 169.537 1.951 183.085 17.878 173.538 20.439 171.828 27.129 180.655 27.129 184.076 36.944 172.82 32.541 169.537 49.32 178.09 51.454 200.189 47.903 208.882 39.215 199.472 35.664 207.889 15.471 201.9 4.801 207.463 -3.034 205.323 -8.854 207.463 -15.972 207.463 -28.058 202.328 -26.213 209.307 -35.465 206.897 -40.859"/><polygon class="cls-5" points="210.624 76.384 206.793 75.666 196.39 83.484 199.677 93.454 199.231 99.428 202.515 106.528 208.058 109.225 203.508 115.064 198.512 115.064 200.669 109.225 191.805 97.004 194.235 82.05 188.384 82.05 178.43 93.454 178.43 109.225 194.681 118.613 192.525 121.311 199.231 130.153 205.664 130.871 208.504 126.602 212.335 128.718 223.043 128.001 219.178 120.628 226.875 127.285 233.58 127.285 234.3 124.452 227.321 123.017 236.866 121.311 231.322 113.629 240.151 115.644 239.022 133.704 244.29 122.027 246.856 129.437 250.277 126.602 253.117 132.269 261.944 130.153 262.39 136.537 267.659 135.82 270.225 139.405 275.937 137.255 280.933 145.071 278.061 162.449 281.48 167.399 276.486 173.239 264.818 174.67 261.944 181.772 265.229 192.15 273.645 193.176 282.336 184.333 276.486 178.221 284.764 181.772 291.882 182.488 304.884 188.599 307.142 192.15 319.834 198.123 322.264 193.176 346.077 194.573 349.189 190.306 344.915 183.923 323.699 178.221 339.369 178.939 351.755 183.205 344.365 166.717 337.66 161.732 317.27 153.915 316.549 147.223 308.579 141.521 326.539 143.945 329.826 149.338 339.369 150.774 338.241 123.017 329.826 124.896 328.969 128.718 324.111 122.027 321.544 124.896 313.129 119.195 296.878 118.613 290.343 118.613 296.878 107.246 287.194 109.225 282.2 107.246 289.043 104.104 283.055 98.71 278.777 100.555 277.34 97.004 261.944 98.71 265.229 92.02 246.856 91.302 240.869 82.05 228.038 87.752 231.871 91.302 228.038 98.71 223.043 94.17 220.203 98.71 213.498 93.454 213.498 82.05 210.624 76.384"/><polygon class="cls-5" points="259.21 139.227 252.658 144.194 260.064 152.729 264.633 149.178 263.487 140.643 259.21 139.227"/><polygon class="cls-5" points="240.529 139.227 240.956 144.91 246.09 146.327 240.529 139.227"/><polygon class="cls-5" points="220.719 181.611 223.422 185.162 220.719 188.728 237.689 192.278 255.787 202.948 251.803 206.498 237.689 204.364 229.136 218.02 216.733 215.187 217.864 197.264 216.152 185.162 220.719 181.611"/><polygon class="cls-5" points="110.517 92.284 115.085 96.553 119.925 91.431 113.51 91.431 110.517 87.3 110.517 92.284"/><polygon class="cls-5" points="214.474 74.554 218.186 84.523 230.45 80.956 229.87 73.564 223.745 73.137 214.474 74.554"/><polygon class="cls-5" points="88.726 69.656 81.611 74.06 87.734 79.745 103.558 72.49 104.413 67.659 102.138 64.246 98.989 60.831 95.569 59.551 94.869 53.713 89.446 49.018 81.026 51.153 76.615 59.551 76.615 53.713 69.345 55.42 74.903 63.818 88.726 69.656"/><polygon class="cls-5" points="99.992 102.553 93.584 99.802 98.049 107.689 88.353 105.059 85.395 97.006 79.044 96.966 80.892 90.276 75.195 89.559 64.776 96.25 55.657 104.495 58.515 112.603 64.776 112.603 53.519 116.735 57.077 124.125 60.926 122.419 77.608 124.843 84.313 129.827 80.892 133.805 67.342 129.827 59.798 130.526 55.232 131.96 56.882 136.366 68.961 136.503 79.15 143.186 85.834 138.146 88.879 134.792 99.992 102.553"/><polygon class="cls-5" points="-36.581 111.75 -43.989 137.644 -38.293 142.629 -41.132 151.165 -37.145 155.994 -39.421 169.223 -33.688 188.287 -28.312 232.167 -16.979 236.308 -15.962 251.928 0.894 257.522 68.022 270.236 124.362 272.343 125.369 250.44 118.954 245.321 109.546 241.054 102.274 232.519 91.154 228.249 83.031 174.48 58.652 168.505 62.501 160.399 59.081 159.698 58.088 157.139 65.495 154.715 61.936 145.463 57.507 144.046 41.836 135.51 40.125 129.827 29.708 124.552 23.018 126.976 26.287 118.151 23.018 117.451 18.741 123.852 13.455 110.332 7.468 108.063 4.628 114.037 -0.076 114.037 -5.363 116.018 -14.907 116.018 -18.193 121.992 -22.605 121.992 -21.185 113.183 -20.33 106.629 -24.453 108.063 -30.44 115.454 -36.581 111.75"/><polygon class="cls-5" points="93.158 47.175 92.574 42.617 88.299 42.617 89.734 33.656 86.45 32.666 58.088 42.617 56.376 47.175 69.208 51.87 85.731 44.051 93.158 47.175"/><polygon class="cls-5" points="76.906 85.293 75.195 75.904 67.342 70.937 51.811 65.661 45.104 67.369 41.118 77.337 30.425 93.828 35.131 105.502 34.276 110.469 46.388 108.335 50.391 108.335 58.088 97.395 71.346 88.143 76.906 85.293"/><polygon class="cls-5" points="0.896 257.57 -18.213 330.681 -17.894 342.267 -10.086 350.891 -5.23 356.149 -3.381 367.533 9.74 390.424 10.732 410.346 53.79 415.329 68.177 270.236 0.896 257.57"/><polygon class="cls-5" points="67.903 270.236 53.79 415.329 99.825 418.743 128.77 418.027 124.356 272.37 99.825 271.363 67.903 270.236"/><polygon class="cls-5" points="124.356 272.37 128.77 417.736 181.665 415.892 181.236 359.425 215.449 303.521 210.748 299.392 202.619 301.661 195.199 306.646 187.65 286.3 184.076 284.455 178.243 285.6 172.102 279.044 173.811 266.396 124.356 272.37"/></g></g><circle class="cls-6" cx="203.367" cy="168.364" r="52.791"/><path class="cls-7" d="M283.55,177.881a6.514,6.514,0,0,0-6.382-1.336c-.729.236-1.413.491-2.077.737a16.553,16.553,0,0,1-6.066,1.373c-3.007-.03-7.239-1.251-9.424-3.858-1.917-2.288-2.715-5.792-.529-8.066,3.017-3.137,9.613-1.87,13.31-.25a4.272,4.272,0,0,0,5.676-5.39,3.389,3.389,0,0,0-1.958-2.143c-1.366-.51-3.213-.111-5.648,1.217a15.249,15.249,0,0,1-9.279,2.086,4.568,4.568,0,0,1-3.677-2.5,6.938,6.938,0,0,1,.307-6.282c2.148-3.93,6.849-4.905,9.46-5.136a19.487,19.487,0,0,1,4.908.464c2.309.411,4.7.837,6.751.119a6.526,6.526,0,0,0-4.3-12.324c-1.926.672-3.228,2.284-4.486,3.843-.257.318-.513.636-.772.942a13.925,13.925,0,0,1-6.6,4.25c-4.066,1.42-7.014,1.019-9.86-1.338a16.645,16.645,0,0,1-3.757-5.3c-.147-.277-.293-.554-.442-.829a32.628,32.628,0,0,0-2.26-3.457,34.022,34.022,0,0,1-2.123-3.215,7.913,7.913,0,0,1-1.03-6.329c.761-2.372,2.965-4.4,6.74-6.186a16.192,16.192,0,0,1,2.562-.87c1.664-.464,3.385-.944,4.6-2.353a6.511,6.511,0,1,0-11.182-6.022,19.6,19.6,0,0,0-.48,2.621,12.487,12.487,0,0,1-1.024,4.046l-.215.427c-1.11,2.2-2.368,4.7-4.6,5.83-2.844,1.439-5.808-.088-8.421-1.438-.33-.17-.654-.337-.974-.5-1.238-.619-2.528-1.181-3.776-1.725a50.1,50.1,0,0,1-5.9-2.89c-6.1-3.687-3.42-11.919-2.453-14.354a17.183,17.183,0,0,1,2.436-4.475,16.255,16.255,0,0,1,1.287-1.335,8.966,8.966,0,0,0,2.218-2.8,6.5,6.5,0,0,0-8.482-8.609c-3.716,1.571-4.632,4.969-2.721,10.1a17.9,17.9,0,0,1,1.087,5.837,17.315,17.315,0,0,1-2.874,10.437c-1.67,2.236-5.41,3.7-8.1,2.236a5.469,5.469,0,0,1-2.492-3.585,11.507,11.507,0,0,1-.182-5.083,9.968,9.968,0,0,1,1-2.443,9.239,9.239,0,0,0,1.084-2.8,4.288,4.288,0,0,0-2.188-4.347,4.2,4.2,0,0,0-4.73.618,4.087,4.087,0,0,0-1.25,4.531,8.448,8.448,0,0,0,1.337,2.2,9.141,9.141,0,0,1,1.2,1.89c1.347,3.195.686,7.141-1.537,9.178-1.714,1.57-4.025,1.712-6.509.4-5.755-3.043-5.474-11.063-4.225-17.254a6.819,6.819,0,0,0-2.3-6.563,6.139,6.139,0,0,0-6.332-1.043,6.662,6.662,0,0,0-3.81,8.236c.638,1.831,2.119,3.075,3.549,4.278l.41.345c4.1,3.479,5.944,7.779,5.493,12.78-.318,3.518-3.312,5.253-6.208,6.931l-.334.193a28.072,28.072,0,0,0-3.565,2.623,22.415,22.415,0,0,1-4.583,3.163c-2.885,1.341-6.282.885-9.321-1.252a31.245,31.245,0,0,1-7.322-7.56,12.03,12.03,0,0,1-1.143-3.11,10.566,10.566,0,0,0-1.681-3.97,6.274,6.274,0,0,0-6.674-2.1,6.415,6.415,0,0,0-4.781,5.323,6.589,6.589,0,0,0,2.2,5.838,6.486,6.486,0,0,0,3.86,1.431c.393.052.8.106,1.227.185a20.145,20.145,0,0,1,5.315,1.835c3.194,1.661,8.409,5.85,9.459,9.568.757,2.684-.711,6.576-2.965,7.857-3.2,1.819-6.652-2.375-8.712-4.882-.279-.338-.535-.65-.767-.92a4.248,4.248,0,0,0-5.965-.736,4.354,4.354,0,0,0-1.4,4.521c.863,2.89,3.766,2.927,6.1,2.958,2.762.036,4.362.382,6.54,2.338a4.368,4.368,0,0,1,1.433,4.183,7.257,7.257,0,0,1-4.278,5.167c-2.463.993-5.247.587-7.888.084a17.312,17.312,0,0,1-6.874-2.731,15.709,15.709,0,0,1-1.94-1.734,8.176,8.176,0,0,0-4.247-2.728,6.62,6.62,0,0,0-7.635,7.623,6.744,6.744,0,0,0,6.262,5.312h.165a12.184,12.184,0,0,0,4.6-1.219,12.687,12.687,0,0,1,4.183-1.187c3.414-.158,8.194.488,11.4,2.743a7.433,7.433,0,0,1,2.844,6.02c.081,2.74.319,5.513.55,8.2.055.643.111,1.286.164,1.928l.034.411c.219,2.574.408,4.8-1.249,6.925-2.886,3.7-8.574,5.022-12.631,4.676a15.069,15.069,0,0,1-2.625-.54,8.1,8.1,0,0,0-5-.241,6.661,6.661,0,0,0-4.37,5.9,6.592,6.592,0,0,0,8.67,6.424c1.808-.632,2.9-2.08,3.964-3.48a19.707,19.707,0,0,1,1.5-1.83,15.227,15.227,0,0,1,10.483-4.712h.071a8.7,8.7,0,0,1,6.043,2.555,5.217,5.217,0,0,1,1.487,3.935c-.131,2.238-1.871,3.6-3.642,4.8-2.261,1.538-5.084,2.179-7.815,2.8q-.5.112-.988.226a4.277,4.277,0,0,0-3.066,2.861,4.344,4.344,0,0,0,2.224,5.081c3.206,1.547,4.87-1.236,6.207-3.47l.059-.1c2.095-3.5,5.07-5.97,8.162-6.765a4.223,4.223,0,0,1,4.636,1.391c1.928,2.393,1.943,6.55.746,8.931-2.421,4.818-7.273,9.079-11.8,10.362-3.029.858-5.914,2.133-6.5,5.616a6.521,6.521,0,0,0,9.544,6.8c2.484-1.326,2.991-3.923,3.483-6.435a20.69,20.69,0,0,1,.7-2.854,21.775,21.775,0,0,1,4.01-6.73c1.608-1.9,7.269-7.834,12.71-4.473,2.536,1.566,2.58,4.433,1.775,6.594-.964,2.589-2.611,4.176-5.128,6.043-2.359,1.75-3.011,3.813-1.836,5.811a4.4,4.4,0,0,0,2.779,2.038,4.143,4.143,0,0,0,3.256-.561c2.112-1.381,1.963-3.508,1.819-5.565a10.625,10.625,0,0,1,.071-3.042c.53-2.291,2.415-6.637,5.756-6.686h.116c4.673,0,6.532,4.247,6.7,7.909.2,4.4-1.553,8.492-5.523,12.869a6.557,6.557,0,0,0,.008,8.889,6.046,6.046,0,0,0,8.258,1.063,6.573,6.573,0,0,0,2.423-7.606l-.3-1c-1.2-3.949-2.15-7.067-1.135-11.483,1.393-6.044,5.79-7.289,11.963-7.3a32.569,32.569,0,0,0,3.928-.333c2.8-.348,5.7-.707,8.22.4,3.6,1.569,5.688,6.961,5.83,11.237a16.808,16.808,0,0,1-.557,3.984c-.533,2.451-1.085,4.986.186,7.087a5.847,5.847,0,0,0,5.747,3.117,7.382,7.382,0,0,0,6-4.794,5.981,5.981,0,0,0-1.77-6.465,15.158,15.158,0,0,0-1.865-1.473,12.688,12.688,0,0,1-2.011-1.636,15.228,15.228,0,0,1-4.084-11.771,7.262,7.262,0,0,1,5.3-6.082c2.758-.6,3.741.008,5.119,2.036a10.31,10.31,0,0,1,1.61,5.166c.077.652.156,1.326.288,2.048a4.3,4.3,0,0,0,2.126,2.949,4.2,4.2,0,0,0,3.539.337,3.923,3.923,0,0,0,2.726-3.656,4.729,4.729,0,0,0-2.94-4.41c-2.451-1.015-5.375-3.306-6-5.937a4.279,4.279,0,0,1,1.064-3.935,7.413,7.413,0,0,1,7.194-2.135c3.646,1.073,7.208,3.986,10.029,8.2a18.382,18.382,0,0,1,1.8,4.083c.828,2.368,1.684,4.817,3.743,6.168a6.47,6.47,0,0,0,8.5-9.573,5.833,5.833,0,0,0-.784-.772,11.286,11.286,0,0,0-5.384-1.91,16.472,16.472,0,0,1-3.727-.948,20.778,20.778,0,0,1-6.066-4.164c-1.566-1.523-6.455-6.906-3.634-12.243.4-.764.822-1.52,1.24-2.276.8-1.442,1.623-2.931,2.328-4.455.261-.562.5-1.136.741-1.71a16.336,16.336,0,0,1,2.621-4.724c2.379-2.664,5.668-2.438,8.265-1.944,4.387.835,6.731,2.832,9.975,5.594a6.746,6.746,0,0,0,6.589,1.231,6.221,6.221,0,0,0,4.126-4.822A6.362,6.362,0,0,0,283.55,177.881Zm-30.027-2.514c-.739.1-1.459-.745-1.607-1.879s.332-2.132,1.072-2.229,1.458.745,1.606,1.88S254.263,175.271,253.523,175.367Zm-5.655-21.154c-2.107-.852-3.516-3.713-4.193-5.734-.533-1.591-1.17-4.992.818-5.888,2.067-.93,4.207,1.939,5.082,3.434a11.2,11.2,0,0,1,1.531,5.151,3.414,3.414,0,0,1-1.425,2.956A1.986,1.986,0,0,1,247.868,154.213Zm-26.435,55.826a2.953,2.953,0,0,1-.247-.574,3.75,3.75,0,0,1,.214-2.544,12.26,12.26,0,0,1,4.531-5.1c2.018-1.372,4.608-2.569,7.1-2.293,2.169.239,2.985,1.942,2.357,3.892a11.38,11.38,0,0,1-5.855,6.233C227.611,210.646,222.9,212.629,221.433,210.039Zm-25.166-79.871c3.454-1.324,10.668-1.266,11.435,3.575,1.053,6.638-10.021,8.233-14.088,5.7a4.663,4.663,0,0,1-2.279-3.373,4.6,4.6,0,0,1,1.095-3.253A9.165,9.165,0,0,1,196.267,130.168Zm5.2-11.488c1.172-.153,2.2.333,2.3,1.084s-.772,1.484-1.944,1.637-2.2-.332-2.3-1.084S200.3,118.833,201.468,118.68Zm2.81,56.169a7.709,7.709,0,0,1,4.767,3.569c1.924,3.59-.169,7.619-3.695,9.171-3.847,1.693-9.424-.254-10.7-4.49a6.643,6.643,0,0,1-.253-2.551,6.4,6.4,0,0,1,2.343-4.386A8.475,8.475,0,0,1,204.278,174.849Zm-3.949-26.776a2.642,2.642,0,1,1-2.227,3.339A2.854,2.854,0,0,1,200.329,148.073Zm-7.672,64.277c.49-2.862,5.347-2.988,7.462-2.774,2.049.207,5.5,1.038,6.595,2.99,2.12,3.772-5.345,4.507-7.333,4.306a9.977,9.977,0,0,1-5.864-2.286,2.7,2.7,0,0,1-.88-2.081C192.641,212.453,192.648,212.4,192.657,212.35Zm12.063-12.964c.046-1.649,1.727-2.941,3.755-2.885s3.635,1.439,3.589,3.088-1.727,2.942-3.754,2.886S204.675,201.036,204.72,199.386Zm12.328-50.917c2.987-1.344,6.71.459,8.316,4.027s.485,7.55-2.5,8.894-6.711-.458-8.316-4.026S214.061,149.813,217.048,148.469Zm3.838-28.128a15.07,15.07,0,0,1,7.065,3.536c1.294,1.17,3.075,3.278,2.168,5.158-1.083,2.243-4.6,1.755-6.523,1.275-2.819-.7-10.511-4.5-8.554-8.554C216.025,119.72,219.069,119.973,220.886,120.341Zm12.089,21.928c-.764.985-2.468.943-3.807-.095s-1.805-2.678-1.042-3.663,2.468-.943,3.807.095S233.738,141.284,232.975,142.269Zm-14.557,31.449a2.374,2.374,0,1,1,.052,3.585A2.548,2.548,0,0,1,218.418,173.718Zm16.588,11.632c-1.953-.552-3.029-2.665-3.32-4.541-.6-3.882,1.576-10.81,6.374-11.038,6.689-.318,4.835,10.115,2.316,13.253C239.147,184.554,237.031,185.922,235.006,185.35Zm6.823,7.953a1.663,1.663,0,1,1,.223,2.615A1.885,1.885,0,0,1,241.829,193.3Zm-61.678-69.211a2.623,2.623,0,0,1,2.127.906c1.259,1.881-2.464,6.056-3.931,7.054-1.723,1.172-5.233,2.974-7.288,1.572a2.627,2.627,0,0,1-.789-2.928c.584-1.882,2.421-3.56,4-4.635A9.756,9.756,0,0,1,180.151,124.092Zm-10.764,21.04c.873.422,1.07,1.824.438,3.131s-1.851,2.026-2.724,1.6-1.07-1.824-.438-3.131S168.514,144.711,169.387,145.132Zm-.363,41.082a4.7,4.7,0,0,1,2.917-1.37c3.107-.293,6.177,1.511,8.27,3.661,3.668,3.769,4.582,8.829,2.041,11.3-1.78,1.733-4.663,1.531-6.809.662-4.084-1.653-7.946-5.976-7.913-10.571A5.263,5.263,0,0,1,169.024,186.214Zm11.594-11.66a1.718,1.718,0,1,1-.652,1.984A1.5,1.5,0,0,1,180.618,174.554Zm.217,35.791c.29-.6,1.347-.688,2.362-.2s1.6,1.373,1.313,1.972-1.346.688-2.361.2S180.546,210.944,180.835,210.345Zm-3.469-50.957c-.551-4.767,4.619-10.712,9.6-8.058.049.026.1.053.145.08,3.878,2.222,3.092,7.319.519,10.248C184.409,165.325,178.015,164.992,177.366,159.388ZM156.4,185.168a1.72,1.72,0,1,1,2.464,1.21A1.98,1.98,0,0,1,156.4,185.168Zm-.806-11.144c-1.565-1.537-2.011-4.137-2.041-6.243-.028-2.043.44-5.453,2.218-6.759a2.463,2.463,0,0,1,1.3-.532c2.548-.153,3.705,5.476,3.729,7.189C160.829,169.8,159.155,177.523,155.6,174.024Z"/><path class="cls-8" d="M114.874,259.444a4.3,4.3,0,0,1-4.3-4.3V225.325h-7.556v29.823A11.865,11.865,0,0,0,114.874,267H144.7v-7.556Z"/><path class="cls-8" d="M290.152,75.574a4.3,4.3,0,0,1,4.3,4.3v29.822H302V79.87a11.866,11.866,0,0,0-11.852-11.852H260.329v7.556Z"/><path class="cls-8" d="M110.578,79.87a4.3,4.3,0,0,1,4.3-4.3H144.7V68.018H114.874A11.865,11.865,0,0,0,103.022,79.87v29.822h7.556Z"/><path class="cls-8" d="M294.447,255.148a4.3,4.3,0,0,1-4.3,4.3H260.329V267h29.823A11.866,11.866,0,0,0,302,255.148V225.325h-7.557Z"/><path class="cls-7" d="M146.84,334.582l8.723,2.637a16.069,16.069,0,0,1-2.768,6.13,12.019,12.019,0,0,1-4.691,3.714,17.567,17.567,0,0,1-7.13,1.252,20.715,20.715,0,0,1-8.581-1.526,13.609,13.609,0,0,1-5.746-5.369,18.2,18.2,0,0,1-2.417-9.837q0-7.993,4.252-12.286T140.512,315q6.087,0,9.57,2.461a14.461,14.461,0,0,1,5.174,7.559l-8.789,1.955a7.538,7.538,0,0,0-.967-2.153,5.74,5.74,0,0,0-2.043-1.758,6.285,6.285,0,0,0-7.889,2.107q-1.362,2.019-1.362,6.342,0,5.355,1.626,7.341a6.419,6.419,0,0,0,8.888.382A9.915,9.915,0,0,0,146.84,334.582Z"/><path class="cls-7" d="M160.045,331.682q0-7.889,4.394-12.283T176.678,315q8.043,0,12.393,4.318t4.35,12.1a19.834,19.834,0,0,1-1.9,9.262,13.569,13.569,0,0,1-5.493,5.625,18.14,18.14,0,0,1-8.954,2.01,20.606,20.606,0,0,1-9.02-1.736,13.578,13.578,0,0,1-5.79-5.493A18.245,18.245,0,0,1,160.045,331.682Zm9.954.044q0,4.878,1.812,7.009a6.862,6.862,0,0,0,9.9.044q1.758-2.088,1.758-7.493,0-4.548-1.835-6.646a6.272,6.272,0,0,0-4.977-2.1,6.046,6.046,0,0,0-4.834,2.131Q170,326.8,170,331.726Z"/><path class="cls-7" d="M194.585,315.554H204.99l7.25,23.181,7.157-23.181h10.1l-11.961,32.212H206.75Z"/><path class="cls-7" d="M234.047,315.554h9.976v32.212h-9.976Z"/><path class="cls-7" d="M252.2,315.554h14.787a17.71,17.71,0,0,1,7.064,1.186,11.489,11.489,0,0,1,4.45,3.406,14.091,14.091,0,0,1,2.549,5.164,23.969,23.969,0,0,1,.791,6.24,21.682,21.682,0,0,1-1.175,8.009,13.273,13.273,0,0,1-3.264,4.768,10.639,10.639,0,0,1-4.482,2.56,23.089,23.089,0,0,1-5.933.879H252.2Zm9.953,7.3v17.6h2.439a10.268,10.268,0,0,0,4.439-.692,4.693,4.693,0,0,0,2.065-2.417,15.177,15.177,0,0,0,.747-5.592q0-5.121-1.67-7.01t-5.537-1.889Z"/><path class="cls-7" d="M285.659,332.561h13.008v6.921H285.659Z"/><path class="cls-7" d="M322.682,315v32.762h-9.053V326.3a27.419,27.419,0,0,1-4.251,2.7,33.267,33.267,0,0,1-5.153,1.978V323.64a21.77,21.77,0,0,0,7.1-3.538,14.422,14.422,0,0,0,3.955-5.1Z"/><path class="cls-7" d="M333.711,340.537l8.9-1.121a4.717,4.717,0,0,0,1.187,2.637,2.909,2.909,0,0,0,2.043.769,3.712,3.712,0,0,0,3.362-2.176q.879-1.6,1.319-6.789a11.049,11.049,0,0,1-3.3,2.417,9.362,9.362,0,0,1-3.912.769,9.773,9.773,0,0,1-7.306-3.076,10.731,10.731,0,0,1-2.977-7.779,11.522,11.522,0,0,1,1.516-5.844,9.924,9.924,0,0,1,4.175-3.989A14.689,14.689,0,0,1,345.4,315a15.678,15.678,0,0,1,7.756,1.659,11.654,11.654,0,0,1,4.67,5.274,22.111,22.111,0,0,1,1.746,9.547q0,8.723-3.669,12.777t-10.174,4.054a16.707,16.707,0,0,1-6.064-.89,9.371,9.371,0,0,1-3.691-2.6A11.814,11.814,0,0,1,333.711,340.537Zm16.48-14.37a5.96,5.96,0,0,0-1.318-4.1,4.139,4.139,0,0,0-3.208-1.483,3.765,3.765,0,0,0-2.956,1.341,5.947,5.947,0,0,0-1.175,4.021,6.2,6.2,0,0,0,1.219,4.131,3.841,3.841,0,0,0,3.043,1.428,4.06,4.06,0,0,0,3.142-1.384A5.7,5.7,0,0,0,350.191,326.167Z"/><circle class="cls-9" cx="70.584" cy="331.416" r="31.933"/><path class="cls-7" d="M70.584,300.134A31.282,31.282,0,1,1,39.3,331.416a31.317,31.317,0,0,1,31.281-31.282m0-1.3a32.585,32.585,0,1,0,32.585,32.585,32.585,32.585,0,0,0-32.585-32.585Z"/><polygon class="cls-8" points="72.203 348.545 72.288 340.933 79.644 342.129 78.789 338.879 85.718 332.207 84.007 331.266 85.29 326.219 81.356 327.16 79.986 324.423 75.966 328.443 77.592 319.547 73.999 320.659 71.443 315.355 68.867 320.659 65.273 319.547 66.899 328.443 62.879 324.423 61.51 327.16 57.575 326.219 58.858 331.266 57.148 332.207 64.076 338.879 63.22 342.129 70.578 340.933 70.663 348.545 72.203 348.545"/><rect class="cls-6" x="193.75" y="194.5" width="12" height="400.5" transform="translate(-195 594.5) rotate(-90)"/></g></svg>